<?xml version="1.0" encoding="utf-8"?>
<!-- Generator: Adobe Illustrator 25.1.0, SVG Export Plug-In . SVG Version: 6.00 Build 0)  -->
<!DOCTYPE svg PUBLIC "-//W3C//DTD SVG 1.1//EN" "http://www.w3.org/Graphics/SVG/1.1/DTD/svg11.dtd" [
	<!ENTITY ns_extend "http://ns.adobe.com/Extensibility/1.0/">
	<!ENTITY ns_ai "http://ns.adobe.com/AdobeIllustrator/10.0/">
	<!ENTITY ns_graphs "http://ns.adobe.com/Graphs/1.0/">
	<!ENTITY ns_vars "http://ns.adobe.com/Variables/1.0/">
	<!ENTITY ns_imrep "http://ns.adobe.com/ImageReplacement/1.0/">
	<!ENTITY ns_sfw "http://ns.adobe.com/SaveForWeb/1.0/">
	<!ENTITY ns_custom "http://ns.adobe.com/GenericCustomNamespace/1.0/">
	<!ENTITY ns_adobe_xpath "http://ns.adobe.com/XPath/1.0/">
]>
<svg version="1.1" id="Layer_1" xmlns:x="&ns_extend;" xmlns:i="&ns_ai;" xmlns:graph="&ns_graphs;"
	 xmlns="http://www.w3.org/2000/svg" xmlns:xlink="http://www.w3.org/1999/xlink" x="0px" y="0px" viewBox="0 0 841.89 595.28"
	 enable-background="new 0 0 841.89 595.28" xml:space="preserve">
<metadata><?xpacket begin="﻿" id="W5M0MpCehiHzreSzNTczkc9d"?>
<x:xmpmeta xmlns:x="adobe:ns:meta/" x:xmptk="Adobe XMP Core 6.0-c004 79.164570, 2020/11/18-15:51:46        ">
   <rdf:RDF xmlns:rdf="http://www.w3.org/1999/02/22-rdf-syntax-ns#">
      <rdf:Description rdf:about=""
            xmlns:xmp="http://ns.adobe.com/xap/1.0/"
            xmlns:xmpGImg="http://ns.adobe.com/xap/1.0/g/img/"
            xmlns:xmpTPg="http://ns.adobe.com/xap/1.0/t/pg/"
            xmlns:stDim="http://ns.adobe.com/xap/1.0/sType/Dimensions#"
            xmlns:xmpG="http://ns.adobe.com/xap/1.0/g/"
            xmlns:dc="http://purl.org/dc/elements/1.1/">
         <xmp:CreatorTool>Adobe Illustrator 25.1 (Macintosh)</xmp:CreatorTool>
         <xmp:CreateDate>2021-02-22T15:50Z</xmp:CreateDate>
         <xmp:Thumbnails>
            <rdf:Alt>
               <rdf:li rdf:parseType="Resource">
                  <xmpGImg:width>256</xmpGImg:width>
                  <xmpGImg:height>40</xmpGImg:height>
                  <xmpGImg:format>JPEG</xmpGImg:format>
                  <xmpGImg:image>/9j/4AAQSkZJRgABAgEASABIAAD/7QAsUGhvdG9zaG9wIDMuMAA4QklNA+0AAAAAABAASAAAAAEA&#xA;AQBIAAAAAQAB/+4ADkFkb2JlAGTAAAAAAf/bAIQABgQEBAUEBgUFBgkGBQYJCwgGBggLDAoKCwoK&#xA;DBAMDAwMDAwQDA4PEA8ODBMTFBQTExwbGxscHx8fHx8fHx8fHwEHBwcNDA0YEBAYGhURFRofHx8f&#xA;Hx8fHx8fHx8fHx8fHx8fHx8fHx8fHx8fHx8fHx8fHx8fHx8fHx8fHx8fHx8f/8AAEQgAKAEAAwER&#xA;AAIRAQMRAf/EAaIAAAAHAQEBAQEAAAAAAAAAAAQFAwIGAQAHCAkKCwEAAgIDAQEBAQEAAAAAAAAA&#xA;AQACAwQFBgcICQoLEAACAQMDAgQCBgcDBAIGAnMBAgMRBAAFIRIxQVEGE2EicYEUMpGhBxWxQiPB&#xA;UtHhMxZi8CRygvElQzRTkqKyY3PCNUQnk6OzNhdUZHTD0uIIJoMJChgZhJRFRqS0VtNVKBry4/PE&#xA;1OT0ZXWFlaW1xdXl9WZ2hpamtsbW5vY3R1dnd4eXp7fH1+f3OEhYaHiImKi4yNjo+Ck5SVlpeYmZ&#xA;qbnJ2en5KjpKWmp6ipqqusra6voRAAICAQIDBQUEBQYECAMDbQEAAhEDBCESMUEFURNhIgZxgZEy&#xA;obHwFMHR4SNCFVJicvEzJDRDghaSUyWiY7LCB3PSNeJEgxdUkwgJChgZJjZFGidkdFU38qOzwygp&#xA;0+PzhJSktMTU5PRldYWVpbXF1eX1RlZmdoaWprbG1ub2R1dnd4eXp7fH1+f3OEhYaHiImKi4yNjo&#xA;+DlJWWl5iZmpucnZ6fkqOkpaanqKmqq6ytrq+v/aAAwDAQACEQMRAD8A8x67rur69q1zq2r3Ul5q&#xA;F25knnlJZiWNaDwUdAo2A2GKoDFXYq7FXYq9A1r/AMkf5X/7bmrf8mLPFWE6Xpt1qepWunWnA3N5&#xA;KkEIkdYk5yEKvJ3KqoqepOKpn5w0ry7pOqJp+iaodYW3hVb+/VOFu91U+oLUk8nhXZVdgORBPQjF&#xA;UixV2Ko7StKfUXuVW5trb6tbS3RN1KsIkEK8vTj5fblfoiDriqBxV2KuxV2KuxV2KuxV2KuxV2Kv&#xA;tX/nCr/yVmq/9ty4/wCoO0xV8VYq7FXYq7FXYq7FXYq7FXYqj9C13VtB1e11fSbl7TULOQSwTxkq&#xA;QynoadVPRgdiNjiqAxVm1t5R8taLoenaz5yuLv1NXjNxpehad6SXL2oYoLmeeYOkCOysIx6bs1K0&#xA;A3KqVeYX8gzWsR8tW2rW16ZKSw6hNbXUZjIO6PDFbMG5U24fTiqf6j5W8ieUJV03ze+paj5jCI99&#xA;pulSQWsVkZFDiGW4njuTJMqkc1WMBTtyJriqH1/yX5fuPKj+b/J13c3GlWk6WusaZfiP65YyTA+i&#xA;7SRUjlhlKlVcKu+xGKojWv8AyR/lf/tuat/yYs8VQtp5U8s6LoWn615ykvHk1lDNpWiac0cNw1qG&#xA;KfWpp5kmSJHdSI1EbF6E/CKVVVNR8oeV9V8qah5m8mzXiJojwjWtG1NopbiKG4b04rmGeFIUlj9T&#xA;4HHpqy7dQa4qhtG8o6Ha+WoPNPm24uYdNv5ZLfRtOsAn1q8aCgnk9SWscMMZYLzKsS2wXYnFWT+S&#xA;vKn5O+cLy602wTzBaaylvLcadp0lzZTfXGgQySRRzLbRBZPTViqslDSnLFWL+W/K+geYdQ8zG0ku&#xA;4NP0nSLzVbBZTG0zNbcOCTFV4kHma8QMVQvk7yfFrUOo6rqd5+jPLmjJG+qagI/Wk5TNxhggiqnq&#xA;TSkHiCwAALE0GKpxYWn5L6rdx6akuuaHLcMI4dYvJbS7tkdjRWnt4obeRE/mKytx98VRPkf8pJdR&#xA;/Oe3/LjzLJJZSerdQ3ctsVLD0LWS4R4y6spWT01IJH2Tir2W7/5xA8m6Vr0t1rnmeXTvJ8UcKRT3&#xA;EttDcTXUhbknquoijVaLSqEtv0pirvOP/OF9iNU06TyvrMkGjSyMNYfUTHI9tCql/WiZBCHHw8eJ&#xA;7kHlStFURqv/ADiL+Xup+UJr7yR5huNQ1OGNzb3Bntrq0uJo9zEfQReJJHEUb4e4OKvnj8svy11/&#xA;8w/NEWg6PxjPAzXl5LX0oIFIDO9NzuQqjuT9OKvpW1/5xG/J62eLRtT8z3knmGZQyxJc2lvIxoTy&#xA;itWjlfiaHqW+eKvC/wA8PyQ1T8sNVtgbr9I6JqPM2F9x4OGjpzilUEgOoYEEGjD6QFWbflP/AM4t&#xA;Q695Xj83eeNWbQ9Dni+s28MRjjl+r0qJ5Zpg0cSMPiX4Ttvtir6S/Jbyj5A8reV7uw8jayNc0ma+&#xA;kuJroXVveBLhoYkaL1LZUQUREbid9/cYq+J/yc/KLWPzM8yPptpKLPTrNBNqeospcRIxoqqtRykc&#xA;g8RUdCe2KvdYv+cZvyGv9QuPKemeb7p/N9qrGaIXFtKyun2w0AjWvCvxIr8h3PXFXi8P5NXmn/nT&#xA;Zflz5hmaOO5uUiF9bUHqW8ql45o+YYbgbg1oajtir2z/AKEw8sxeZU9fWL1PK8FsslzNI8Czy3LS&#xA;MvpI3ALGiKoLMymvIAdyFXn35HfkL5U/Ma480fW9RvbS30a7SCyNsYqvFIZaF/URt6RjpTFWc+Uv&#xA;+cR/ISMmneb/ADFKvmW7R5oNFs7m2jlih3oeLpK8zIu7MqhK+I3xV4n+eH5UN+WvnJdGhumvtPu7&#xA;dbvT7hwFl9NmZCkgXbkrIdxsRQ7dAq9Z8hf84j6Uvl6HX/zJ1p9JjlRJTYQvFb+gr0KrcXE6soY1&#xA;oVC7fzVxVU/Mb/nEfRYfK8/mL8vtXm1BYIWuRY3DxXC3ESjk31eeFYxUKDxUhuXiMVfL+KuxV6T/&#xA;AM5AoYvzFMMRJ06HS9Jj0vw+rDT4ePEdhz5Yqxv8sxan8yPKgu+P1U6xp4uOf2fT+tR8+XtxxVr8&#xA;yluV/MXzSLqv1gavfeqWrXl9ZevWuKsj/LV1i8g/mXJcn/QG0q0iI23unv4jbde4KsfkDiqhrX/k&#xA;j/K//bc1b/kxZ4qy783POFvo2saHZx+XNG1Kw/w/pL6bd31vLJM1s1onH4kljUgMGpQYqwp/zYvk&#xA;0jVNL0/QNF0uLWLY2d9NZ20qStCXV+IZpnA+JAemKskTy7e/mD+UmgHQxGNU8lvcafqNrcOltHNF&#xA;fTtc28sM0xjgLgl1aPnzPWmKqXkDRb38tfMcPnTzTLbWLaRHNJpuki4gmvLy6kheKFFgheR44wz8&#xA;nkk4igoKnbFUn/KH/ptf/AV1P/mViqJCL/0LkWiH7z/F9Lqlfs/owehy+n1KfTirzbFX055XdT/z&#xA;ln5Vjf8A3vg0m3i1MnqbpdAfnX3A4g/LFUP/AM5ualet5s8vaYZW+oxWD3KQ1PH1ZZmRmI8eMSjF&#xA;Xp35/wCr3un/APON8YtZGje+t9OtJnUkN6UgRpFr4OF4t4gnFUH/AM4Vu7flXqYZiQmt3AUE9B9U&#xA;tTQfScVY5/zg7BY/o7zbOoBvvWs0kO1RFxlKU77tyr8sVeN+e7bzTP8A85FarDEs51t/MTfo8AH1&#xA;eH1kG0ZafsiHgVP8uKvoX/nMyTT38i+XrK4dVmuNchZQaBvRS3mWZgT0AMiV+jFUf/zlys9p+S/1&#xA;axBhtBfWkM8cQoggUPxUgdFDqn00xVT/AOcNtMvLP8pJ57iMpHqGrXFzakinKIQwQch/s4WGKpF/&#xA;zhEtn/hHzIycfrp1CITfzekIR6VfbkZKYqlf/K3/APnG7yf57u9Sh8m6xaeadOu7pJ7wJGzCdy8M&#xA;7UkvafFzbqvfFUhn/NDy9+Y//OS/kbW9Ctbq1trdYbOUXqRxytIklxITSKSZePGVaGtevtiqe/8A&#xA;OcGr3yJ5V0hJWSxm+t3U8QJCvJH6SRlh34B2p/rHFUR/zg5/xyvN3/Gey/4hNirAPIurX+p/85dC&#xA;9u5WknfWtRjDEnaOOOeKNB/kpGoUe2Ks8/5yIhsZ/wDnIr8t4b6hs5GsFmDUKlTqLfC1f2T0Ptiq&#xA;P/5zdGqHyp5bMQkOmC9mN3x/uxN6QEHL34+px+nFU/8A+cP01G0/J2WbUy0Vm2pXU1g8uyi1EcQZ&#xA;lr+x6yyn51xV8TXrwveTvAAIWkcxACgCljx27bYqoYq9CXz15R8w6Fpml+edPvXvtEtxZabr2lSR&#xA;LObRK+jb3ME68JFiqeLK6tTbfFUh1+58hR2sKeV7fVVv0lWSTUdQngA4KD8MdvBHVWLUbmZjSlKd&#xA;8VZJrXnT8vfOUiat5usNRsPM5RE1G/0c27wXrIvETyW8/p+lMwA5lHKt1oCcVSLzF5v02XQ4/LPl&#xA;qyk07y+k4u7prmRZry9uVUoktw6LGirGjMI4kFFqSSxNcVUL7zVb3PkDSfLCwOs+naheXz3BI4Mt&#xA;3HAiqB1qvoGvzxVPLPz15U1ryzp+geeNOu5pdFjaDRte0ySNbqO2LFxazxTD05o1diU+JSvQYqlO&#xA;uSflhHpckWgwazcapIV9O61CS2hgiUMC37iFZWdmUU3kAHgcVZtZ3XlbS/yj0jQ/zAgvGS/vJNa8&#xA;vWmjypBd/V5Qbd7i79ZJISjtCRD8BegbotKqpXpOlfkTr9/b6RaT+YtDvr6Rbe0v71rK9tUlkPFP&#xA;WSGO1kC8iKlScVSjTL2b8v8AXvN2h6rbma9ksNQ0CT0WHFJpHVPUqftJ+7xVQ8jeeoNBtdU0TWLD&#xA;9L+V9cSNNT08SejKskJLQ3NtLR/TmiJNKqQw+FtsVR9vrH5S6LdLqek6fq2sX8DepZWertbRWaSA&#xA;1Rpxb83nVOvAcA3fbbFVv5dfmbN5e/Na08/a6kuq3CS3dxehGVZJZLu3liJBPwijTVp4bDFUz/Pr&#xA;82tO/MzzHp+rWNhNp8dlZ/VWinZXZm9V5OQK9vjxVlX5o/8AORei+cvyvtvJttpFzaXMH1St1JJG&#xA;0Z+qqFPwrv8AF2xV35D/APORei/lr5QvNCvtIudQludQkvlmgkjRQskMMXEht61hJ+nFWA/lD+bW&#xA;t/lp5kbVbCFby0uo/R1HT5GKLNGDyWjgNwdT9lqHvtvir6Hl/wCcyvyyKrqK+WL99dVOKs0doABQ&#xA;/CLn1Gk47/77+jFXzr+bH5seYfzJ8wrquqqttbWymLTtOiJaOCNjU7n7TttyagrQbAADFXt/kz/n&#xA;L7y3/hCHRPPmhXOpXMEK28ktukFxDdCMAK00dw8fFjQcvtCu+3TFVXRv+c0tMtbm9S48tSRaUpjj&#xA;0eytHiT0YY1IPqEqo5Meyjio29yq8T/Jz84Nb/LLzBLqFlCt7p16qx6nprtwEyoSUZXo3B0LHiaH&#xA;qdsVe46j/wA5OfkDq7/pLWPIUl9rRC85biw064NV6D6xJJ6hp2+HFXkN9+b2iXH522X5h2uiNYad&#xA;aSwN+ionj5FbeEQihVI0WqqNqGnjiqI/P/8AOjTPzPvNFnsNNn04aXHOkizujlzMyEEcPDhiqM/I&#xA;D89tJ/LCz1qC/wBLn1E6pJA8bQOiBBCrg15+PqYqxXyn+Ytlon5wL58ls5JrRdQu776krKJONz6t&#xA;F5H4ar6uKpr+ev5wWf5jeaNM1vTLKfSzp1qtuBK6s/NZnlDqydKcsVet+U/+cytCn0KPT/Pugz3l&#xA;0iKk9zZJBNFcFaUd4J2hVGJFSAxFdxTpirF/zb/5ytn8y+XpvLHlDTH0XSLqMwXd1MUE7wEUMMcc&#xA;VUiUjZviao22xV894q+nfMX/ADhNrp1e4fy9r1mNJdy1tHerMs0ak1EbGNZFfiNuW1fAYqln/Qkv&#xA;n/8A6vulffc/9UsVd/0JL5//AOr7pX33P/VLFXf9CS+f/wDq+6V99z/1SxV3/Qkvn/8A6vulffc/&#xA;9UsVd/0JL5//AOr7pX33P/VLFXf9CS+f/wDq+6V99z/1SxV3/Qkvn/8A6vulffc/9UsVZv5k/wCc&#xA;UNX8yeWNAjvdYtbLzJoVmultNAkktpc2kLs0DMGETxyqJCrH4gaduyqA8of84b3ejapFq+qazb6l&#xA;NYOs9lpqLJbwyzRkNH689JHWPkPiCJUjuMVSXXf+cPvzO1zWr7WdQ8waTJfajcSXVy4+sgGSZy7U&#xA;HpbCp2HbFUD/ANCS+f8A/q+6V99z/wBUsVd/0JL5/wD+r7pX33P/AFSxV3/Qkvn/AP6vulffc/8A&#xA;VLFXf9CS+f8A/q+6V99z/wBUsVd/0JL5/wD+r7pX33P/AFSxV3/Qkvn/AP6vulffc/8AVLFXf9CS&#xA;+f8A/q+6V99z/wBUsVd/0JL5/wD+r7pX33P/AFSxV3/Qkvn/AP6vulffc/8AVLFXf9CS+f8A/q+6&#xA;V99z/wBUsVd/0JL5/wD+r7pX33P/AFSxV3/Qkvn/AP6vulffc/8AVLFXf9CS+f8A/q+6V99z/wBU&#xA;sVd/0JL5/wD+r7pX33P/AFSxV3/Qkvn/AP6vulffc/8AVLFXf9CS+f8A/q+6V99z/wBUsVd/0JL5&#xA;/wD+r7pX33P/AFSxV3/Qkvn/AP6vulffc/8AVLFXf9CS+f8A/q+6V99z/wBUsVd/0JL5/wD+r7pX&#xA;33P/AFSxVM/Lv/OE2ujV7d/MOvWZ0lHDXMdkszTSKDUxqZFjVOQ25b08Dir/AP/Z</xmpGImg:image>
               </rdf:li>
            </rdf:Alt>
         </xmp:Thumbnails>
         <xmpTPg:MaxPageSize rdf:parseType="Resource">
            <stDim:w>297.000089</stDim:w>
            <stDim:h>210.001566</stDim:h>
            <stDim:unit>Millimeters</stDim:unit>
         </xmpTPg:MaxPageSize>
         <xmpTPg:NPages>1</xmpTPg:NPages>
         <xmpTPg:HasVisibleTransparency>False</xmpTPg:HasVisibleTransparency>
         <xmpTPg:HasVisibleOverprint>False</xmpTPg:HasVisibleOverprint>
         <xmpTPg:PlateNames>
            <rdf:Seq>
               <rdf:li>Cyan</rdf:li>
               <rdf:li>Magenta</rdf:li>
               <rdf:li>Yellow</rdf:li>
               <rdf:li>Black</rdf:li>
            </rdf:Seq>
         </xmpTPg:PlateNames>
         <xmpTPg:SwatchGroups>
            <rdf:Seq>
               <rdf:li rdf:parseType="Resource">
                  <xmpG:groupName>Default Swatch Group</xmpG:groupName>
                  <xmpG:groupType>0</xmpG:groupType>
               </rdf:li>
            </rdf:Seq>
         </xmpTPg:SwatchGroups>
         <dc:format>image/svg+xml</dc:format>
      </rdf:Description>
   </rdf:RDF>
</x:xmpmeta>
                                                                                                    
                                                                                                    
                                                                                                    
                                                                                                    
                                                                                                    
                                                                                                    
                                                                                                    
                                                                                                    
                                                                                                    
                                                                                                    
                                                                                                    
                                                                                                    
                                                                                                    
                                                                                                    
                                                                                                    
                                                                                                    
                                                                                                    
                                                                                                    
                                                                                                    
                                                                                                    
                           
<?xpacket end="w"?>
	</metadata>
<g>
	<path d="M119.64,279.3c-9.46,0-18.48,7.15-18.48,23.1c0,15.07,6.82,23.76,18.59,23.76c9.35,0,18.15-7.04,18.15-23.87
		C137.9,287.99,131.63,279.3,119.64,279.3z"/>
	<path d="M197.47,279.08c-8.47,0-14.52,6.16-16.06,15.62h30.8C212.43,285.57,206.82,279.08,197.47,279.08z"/>
	<path d="M330.5,279.3c-9.46,0-18.48,7.15-18.48,23.1c0,15.07,6.82,23.76,18.59,23.76c9.35,0,18.15-7.04,18.15-23.87
		C348.76,287.99,342.49,279.3,330.5,279.3z"/>
	<path d="M484.61,288.54c-5.28,0-10.45,4.07-10.45,13.64c0,10.01,3.19,14.63,10.12,14.63c6.05,0,10.23-5.06,10.23-14.19
		C494.51,293.27,491.54,288.54,484.61,288.54z"/>
	<path d="M536.82,304.05c0,9.13,2.42,13.42,7.59,13.42c5.61,0,9.57-6.6,9.57-15.73v-13.42c-1.87-0.44-3.74-0.66-5.72-0.66
		C541.77,287.66,536.82,291.84,536.82,304.05z"/>
	<path d="M256.78,330.12h-11.99c-1.21,0-2.75,0-3.85-0.11c-5.39,2.64-8.91,7.04-8.91,12.21c0,7.92,7.7,11.99,17.6,11.99
		c13.2,0,21.12-5.61,21.12-13.75C270.75,333.86,266.02,330.12,256.78,330.12z"/>
	<path d="M250.51,310.1c10.12,0,16.5-5.39,16.5-15.29c0-9.79-5.83-15.51-15.95-15.51c-10.67,0-16.83,6.6-16.83,15.62
		C234.23,304.82,240.17,310.1,250.51,310.1z"/>
	<path d="M767.54,288.54c-5.28,0-10.45,4.07-10.45,13.64c0,10.01,3.19,14.63,10.12,14.63c6.05,0,10.23-5.06,10.23-14.19
		C777.44,293.27,774.47,288.54,767.54,288.54z"/>
	<path d="M805.22,241.08H570.7v89.04h-15.4c0-2.31,0.11-5.06,0.55-7.81h-0.22c-2.97,5.28-8.47,9.13-16.61,9.13
		c-13.2,0-19.91-10.01-19.91-25.63c0-17.93,10.67-31.46,29.37-31.46c1.87,0,3.74,0.11,5.5,0.33v-33.6H162.14v72.6v16.44h-5.83
		v-16.44v-72.6H37.34c-7.1,0-12.91,5.81-12.91,12.91v87.57c0,7.1,5.81,12.91,12.91,12.91h194.12c-3.48-2.69-5.48-6.47-5.48-11.26
		c0-7.26,4.51-12.32,9.9-15.07c-3.41-1.54-5.5-4.29-5.5-7.81s2.09-6.71,5.72-8.69c-5.06-3.08-8.03-8.8-8.03-16.06
		c0-11.44,9.02-21.01,23.43-21.01c2.53,0,5.17,0.33,7.7,0.88h18.59v4.62H266.9c3.85,2.86,6.27,7.92,6.27,13.97
		c0,11.55-7.81,20.79-23.76,20.79c-2.86,0-6.16-0.33-8.47-1.1c-2.97,1.32-4.51,3.52-4.51,5.72c0,3.52,3.41,5.17,10.34,5.17h11.66
		c11.88,0,18.48,5.94,18.48,15.07c0,6.15-3.53,11.31-9.31,14.78h537.62c7.1,0,12.91-5.81,12.91-12.91v-87.57
		C818.13,246.89,812.32,241.08,805.22,241.08z M73.04,330.67c-11,0-23.21-4.4-23.21-25.96c0-18.26,9.02-29.92,26.29-29.92
		c4.73,0,9.46,0.77,13.53,1.98l-0.66,5.17c-3.85-1.54-8.58-2.64-13.64-2.64c-12.87,0-19.36,9.68-19.36,23.98
		c0,12.1,3.52,22.44,18.26,22.44c5.39,0,11.11-1.32,15.07-3.41l0.55,5.17C86.35,328.91,80.19,330.67,73.04,330.67z M118.54,331
		c-14.3,0-23.43-9.13-23.43-28.16c0-15.07,8.91-28.27,25.3-28.27c12.32,0,23.54,6.82,23.54,27.39C143.95,317.8,134.6,331,118.54,331
		z M205.06,250.26l4.07,4.07l-13.09,11.33l-3.19-3.19L205.06,250.26z M218.48,299.43h-37.62c-0.77,18.92,6.27,26.51,19.36,26.51
		c5.83,0,11.99-1.54,15.84-3.52l0.55,5.39c-4.73,1.98-10.56,3.19-17.38,3.19c-16.17,0-24.64-8.91-24.64-28.05
		c0-16.28,8.69-28.38,23.32-28.38c14.74,0,20.68,10.23,20.68,21.67C218.59,296.9,218.59,298,218.48,299.43z M294.14,330.12h-5.83
		v-54.67h5.83V330.12z M291.28,264.45c-2.42,0-4.4-1.87-4.4-4.4c0-2.42,1.98-4.4,4.4-4.4c2.42,0,4.4,1.87,4.4,4.4
		C295.68,262.47,293.7,264.45,291.28,264.45z M329.4,331c-14.3,0-23.43-9.13-23.43-28.16c0-15.07,8.91-28.27,25.3-28.27
		c12.32,0,23.54,6.82,23.54,27.39C354.81,317.8,345.46,331,329.4,331z M446.72,330.12h-16.83V295.8c0-4.62-1.1-7.48-4.95-7.48
		c-5.06,0-10.67,6.49-10.67,15.51v26.29h-16.5V295.8c0-4.4-0.99-7.48-4.95-7.48c-5.39,0-10.78,6.82-10.78,15.51v26.29h-16.72v-54.67
		h15.73c0,1.98-0.22,5.72-0.66,8.69h0.11c3.41-6.05,9.79-9.9,17.49-9.9c8.36,0,13.2,4.07,14.96,9.9c2.86-5.39,8.91-9.9,17.27-9.9
		c10.67,0,16.5,6.05,16.5,18.37L446.72,330.12L446.72,330.12z M483.07,331.33c-15.84,0-26.29-7.81-26.29-27.28
		c0-17.82,12.21-29.81,28.93-29.81c16.61,0,26.18,9.24,26.18,27.39C511.89,319.34,499.57,331.33,483.07,331.33z M629.29,306.91
		h-32.56c0.11,7.26,4.51,11.44,13.53,11.44c5.39,0,11-1.1,16.06-3.41l1.54,12.65c-6.16,2.53-13.53,3.74-20.24,3.74
		c-17.93,0-27.83-8.69-27.83-27.94c0-16.83,9.35-29.26,26.29-29.26c16.5,0,23.76,11.11,23.76,25.41
		C629.84,301.85,629.62,304.27,629.29,306.91z M670.54,290.74c-9.13-2.09-13.97,3.19-13.97,16.83v22.55h-16.72v-54.67h15.62
		c0,2.31-0.22,6.27-0.77,9.68h0.22c2.86-6.49,8.03-11.55,16.39-11L670.54,290.74z M729.72,330.12H713v-34.76
		c0-4.4-1.21-7.04-5.06-7.04c-5.94,0-10.89,7.26-10.89,15.29v26.51h-16.72v-54.67h15.62c0,1.98-0.11,5.94-0.66,8.58h0.11
		c3.41-5.61,9.46-9.79,18.15-9.79c12.21,0,16.17,7.81,16.17,17.27L729.72,330.12L729.72,330.12z M766,331.33
		c-15.84,0-26.29-7.81-26.29-27.28c0-17.82,12.21-29.81,28.93-29.81c16.61,0,26.18,9.24,26.18,27.39
		C794.82,319.34,782.5,331.33,766,331.33z"/>
	<path d="M605.64,286.34c-4.84,0-8.36,3.85-8.8,9.46h16.5C613.56,289.64,610.48,286.34,605.64,286.34z"/>
</g>
</svg>
